<svg width="48" height="48" viewBox="0 0 48 48" fill="none" xmlns="http://www.w3.org/2000/svg">
<path fill-rule="evenodd" clip-rule="evenodd" d="M23.3886 17.35C27.0618 17.35 30.0396 20.3278 30.0396 24.0016C30.0396 27.6754 27.0618 30.6526 23.3886 30.6526C19.7154 30.6526 16.737 27.6748 16.737 24.0016C16.7376 20.3284 19.7148 17.35 23.3886 17.35ZM12.1332 37.6678C10.1202 36.0016 8.49058 33.9076 7.37758 31.5424C6.26518 29.179 5.69998 26.6104 5.69998 23.9992C5.69998 20.08 6.97558 16.3042 9.36598 13.1974C11.7528 10.0948 15.1008 7.85321 18.8874 6.85301C19.3566 6.72881 19.6404 6.24401 19.5168 5.77421C19.3932 5.30501 18.9072 5.02061 18.438 5.14481C14.2752 6.24461 10.5936 8.70821 7.96918 12.1192C5.33998 15.5362 3.93058 19.6882 3.93058 23.9992C3.93058 26.872 4.55638 29.6962 5.78038 32.296C7.00378 34.8952 8.79418 37.1986 11.007 39.0298C11.3826 39.3406 11.9406 39.2878 12.252 38.9122C12.5622 38.5366 12.5094 37.9786 12.1338 37.6672L12.1332 37.6678ZM25.8096 4.64441L27.8064 3.08501C28.1904 2.78561 28.2582 2.23001 27.9582 1.84661C27.6582 1.46321 27.1032 1.39481 26.7198 1.69481L22.9002 4.67921C22.8402 4.72481 22.7844 4.77941 22.737 4.84001C22.4376 5.22401 22.5054 5.77841 22.8888 6.07841L26.7204 9.07061C27.1044 9.37001 27.6588 9.30221 27.9588 8.91881C28.2582 8.53481 28.1904 7.98041 27.807 7.68041L26.2878 6.49421C30.0168 7.09781 33.4464 8.88281 36.0966 11.5858C39.3576 14.9104 41.1642 19.3414 41.1642 24.0004C41.1642 28.6594 39.3066 33.2032 35.9706 36.5392C32.6346 39.8752 28.1508 41.7328 23.4318 41.7328H2.39098C1.90258 41.7328 1.50598 42.1288 1.50598 42.6172C1.50598 43.1056 1.90198 43.5022 2.39098 43.5022H23.4312C28.6212 43.5022 33.5526 41.4592 37.221 37.7902C40.8906 34.1206 42.933 29.1904 42.933 24.0004C42.933 18.8104 40.9404 14.0056 37.3542 10.3474C34.257 7.18841 30.1962 5.17841 25.8096 4.64501H25.809L25.8096 4.64441ZM43.0446 43.5016H35.9286C35.4402 43.5016 35.0436 43.1056 35.0436 42.6166C35.0436 42.1276 35.4396 41.7316 35.9286 41.7316H43.0446L41.2368 40.3198C40.8528 40.0204 40.785 39.4648 41.085 39.082C41.3844 38.698 41.94 38.6302 42.3234 38.9302L46.1418 41.9122C46.2036 41.959 46.2594 42.0136 46.3068 42.0742C46.6062 42.4582 46.5384 43.0126 46.155 43.3126L42.3234 46.3048C41.9394 46.6042 41.385 46.5358 41.085 46.153C40.7856 45.769 40.8534 45.2146 41.2368 44.9146L43.0446 43.501V43.5016ZM25.623 12.6898L24.7464 10.4134H22.0308L21.1542 12.6898C19.6302 12.9892 18.2148 13.5886 16.9704 14.4244L14.7396 13.4332L12.819 15.3538L13.8102 17.5846C12.975 18.829 12.375 20.2444 12.0756 21.7684L9.79918 22.645V25.3606L12.075 26.2372C12.3744 27.7612 12.9738 29.1766 13.8096 30.421L12.8196 32.6512L14.7402 34.5718L16.971 33.5806C18.2154 34.4158 19.6308 35.0152 21.1536 35.3152L22.0302 37.5916H24.7458L25.6224 35.3158C27.1464 35.0164 28.5618 34.417 29.8062 33.5812L32.0364 34.5712L33.957 32.6506L32.9658 30.4198C33.801 29.1754 34.4004 27.76 34.7004 26.2372L36.9768 25.3606V22.645L34.701 21.7696C34.4016 20.2456 33.8022 18.8302 32.9664 17.5858L33.9564 15.3556L32.0358 13.435L29.805 14.4262C28.5612 13.5898 27.1458 12.9898 25.6224 12.691L25.623 12.6898Z" fill="url(#paint0_linear_286_629)"/>
<defs>
<linearGradient id="paint0_linear_286_629" x1="1.50658" y1="23.9998" x2="46.4934" y2="23.9998" gradientUnits="userSpaceOnUse">
<stop stop-color="#ED3293"/>
<stop offset="0.5" stop-color="#797ABA"/>
<stop offset="1" stop-color="#AADFF0"/>
</linearGradient>
</defs>
</svg>
