<?xml version="1.0" encoding="UTF-8"?>
<svg id="Layer_1" xmlns="http://www.w3.org/2000/svg" version="1.1" xmlns:xlink="http://www.w3.org/1999/xlink" viewBox="0 0 800 800">
  <!-- Generator: Adobe Illustrator 30.0.0, SVG Export Plug-In . SVG Version: 2.1.1 Build 123)  -->
  <defs>
    <style>
      .st0 {
        fill: url(#linear-gradient);
        fill-rule: evenodd;
      }
    </style>
    <linearGradient id="linear-gradient" x1="25.11" y1="400" x2="774.89" y2="400" gradientUnits="userSpaceOnUse">
      <stop offset="0" stop-color="#ed3293"/>
      <stop offset=".5" stop-color="#797aba"/>
      <stop offset="1" stop-color="#aadff0"/>
    </linearGradient>
  </defs>
  <path class="st0" d="M389.81,289.17c61.22,0,110.85,49.63,110.85,110.86s-49.63,110.85-110.85,110.85-110.86-49.63-110.86-110.85c.01-61.22,49.63-110.86,110.86-110.86ZM202.22,627.8c-33.55-27.77-60.71-62.67-79.26-102.09-18.54-39.39-27.96-82.2-27.96-125.72,0-65.32,21.26-128.25,61.1-180.03,39.78-51.71,95.58-89.07,158.69-105.74,7.82-2.07,12.55-10.15,10.49-17.98-2.06-7.82-10.16-12.56-17.98-10.49-69.38,18.33-130.74,59.39-174.48,116.24-43.82,56.95-67.31,126.15-67.31,198,0,47.88,10.43,94.95,30.83,138.28,20.39,43.32,50.23,81.71,87.11,112.23,6.26,5.18,15.56,4.3,20.75-1.96,5.17-6.26,4.29-15.56-1.97-20.75h0ZM430.16,77.41l33.28-25.99c6.4-4.99,7.53-14.25,2.53-20.64s-14.25-7.53-20.64-2.53l-63.66,49.74c-1,.76-1.93,1.67-2.72,2.68-4.99,6.4-3.86,15.64,2.53,20.64l63.86,49.87c6.4,4.99,15.64,3.86,20.64-2.53,4.99-6.4,3.86-15.64-2.53-20.64l-25.32-19.77c62.15,10.06,119.31,39.81,163.48,84.86,54.35,55.41,84.46,129.26,84.46,206.91s-30.96,153.38-86.56,208.98c-55.6,55.6-130.33,86.56-208.98,86.56H39.85c-8.14,0-14.75,6.6-14.75,14.74s6.6,14.75,14.75,14.75h350.67c86.5,0,168.69-34.05,229.83-95.2,61.16-61.16,95.2-143.33,95.2-229.83s-33.21-166.58-92.98-227.55c-51.62-52.65-119.3-86.15-192.41-95.04h-.01ZM717.41,725.03h-118.6c-8.14,0-14.75-6.6-14.75-14.75s6.6-14.75,14.75-14.75h118.6l-30.13-23.53c-6.4-4.99-7.53-14.25-2.53-20.63,4.99-6.4,14.25-7.53,20.64-2.53l63.64,49.7c1.03.78,1.96,1.69,2.75,2.7,4.99,6.4,3.86,15.64-2.53,20.64l-63.86,49.87c-6.4,4.99-15.64,3.85-20.64-2.53-4.99-6.4-3.86-15.64,2.53-20.64l30.13-23.56ZM427.05,211.5l-14.61-37.94h-45.26l-14.61,37.94c-25.4,4.99-48.99,14.98-69.73,28.91l-37.18-16.52-32.01,32.01,16.52,37.18c-13.92,20.74-23.92,44.33-28.91,69.73l-37.94,14.61v45.26l37.93,14.61c4.99,25.4,14.98,48.99,28.91,69.73l-16.5,37.17,32.01,32.01,37.18-16.52c20.74,13.92,44.33,23.91,69.71,28.91l14.61,37.94h45.26l14.61-37.93c25.4-4.99,48.99-14.98,69.73-28.91l37.17,16.5,32.01-32.01-16.52-37.18c13.92-20.74,23.91-44.33,28.91-69.71l37.94-14.61v-45.26l-37.93-14.59c-4.99-25.4-14.98-48.99-28.91-69.73l16.5-37.17-32.01-32.01-37.18,16.52c-20.73-13.94-44.32-23.94-69.71-28.92h0Z"/>
</svg>