<?xml version="1.0" encoding="UTF-8"?>
<svg id="Layer_1" xmlns="http://www.w3.org/2000/svg" version="1.1" xmlns:xlink="http://www.w3.org/1999/xlink" viewBox="0 0 800 800">
  <!-- Generator: Adobe Illustrator 30.0.0, SVG Export Plug-In . SVG Version: 2.1.1 Build 123)  -->
  <defs>
    <style>
      .st0 {
        fill: none;
      }

      .st1 {
        fill: #007bc6;
      }

      .st2 {
        fill: #d60975;
      }

      .st3 {
        fill: #0f9df4;
      }

      .st4 {
        fill: url(#linear-gradient);
      }

      .st5 {
        clip-path: url(#clippath);
      }
    </style>
    <clipPath id="clippath">
      <rect class="st0" x="6.39" y="6.39" width="787.2" height="787.2"/>
    </clipPath>
    <linearGradient id="linear-gradient" x1="6.39" y1="400.01" x2="793.59" y2="400.01" gradientUnits="userSpaceOnUse">
      <stop offset="0" stop-color="#f3ee83"/>
      <stop offset=".5" stop-color="#98d3b8"/>
      <stop offset="1" stop-color="#f27fa9"/>
    </linearGradient>
  </defs>
  <path class="st1" d="M400,666.63c35,0,63.48-28.48,63.48-63.48s-28.48-63.48-63.48-63.48-63.48,28.48-63.48,63.48c0,35,28.47,63.48,63.48,63.48ZM400,565.05c21,0,38.09,17.09,38.09,38.09s-17.09,38.09-38.09,38.09-38.09-17.09-38.09-38.09,17.09-38.09,38.09-38.09h0Z"/>
  <path class="st3" d="M294.28,559.36l-33.94,8.48v70.61l33.94,8.48-18,30,49.93,49.93,30-18,8.49,33.94h70.61l8.48-33.94,30,18,49.93-49.93-18-30,33.94-8.48v-70.61l-33.94-8.48,18-30-49.93-49.93-30,18-8.48-33.94h-70.61l-8.48,33.94-30-18-49.93,49.93,18,30ZM330.15,511.4l24.75,14.85,6.2-3.02c3.11-1.52,6.45-2.9,9.92-4.1l6.51-2.25,7-28.01h30.96l7,28.01,6.51,2.25c3.47,1.2,6.81,2.58,9.92,4.1l6.2,3.03,24.76-14.85,21.89,21.89-14.85,24.76,3.03,6.2c1.52,3.11,2.9,6.45,4.1,9.92l2.25,6.51,28,6.99v30.96l-28.01,7-2.25,6.51c-1.2,3.47-2.58,6.81-4.1,9.92l-3.03,6.19,14.85,24.76-21.89,21.89-24.76-14.85-6.2,3.03c-3.11,1.52-6.45,2.9-9.92,4.1l-6.51,2.25-6.99,28h-30.96l-7-28.01-6.51-2.25c-3.47-1.2-6.81-2.58-9.92-4.1l-6.2-3.02-24.75,14.85-21.89-21.89,14.85-24.76-3.03-6.19c-1.52-3.11-2.9-6.45-4.1-9.92l-2.25-6.51-28-7v-30.96l28.01-7,2.25-6.51c1.2-3.47,2.58-6.81,4.1-9.92l3.03-6.2-14.85-24.76,21.89-21.89Z"/>
  <path class="st2" d="M82.58,69.87c0,7.01-5.68,12.7-12.7,12.7s-12.7-5.68-12.7-12.7,5.68-12.7,12.7-12.7,12.7,5.68,12.7,12.7"/>
  <path class="st2" d="M82.58,374.61c0,7.01-5.68,12.7-12.7,12.7s-12.7-5.68-12.7-12.7,5.68-12.7,12.7-12.7,12.7,5.68,12.7,12.7"/>
  <path class="st2" d="M742.81,69.87c0,7.01-5.68,12.7-12.7,12.7s-12.7-5.68-12.7-12.7,5.68-12.7,12.7-12.7,12.7,5.68,12.7,12.7"/>
  <path class="st2" d="M742.81,374.61c0,7.01-5.68,12.7-12.7,12.7s-12.7-5.68-12.7-12.7,5.68-12.7,12.7-12.7,12.7,5.68,12.7,12.7"/>
  <g class="st5">
    <path class="st4" d="M730.11,438.09c35,0,63.48-28.48,63.48-63.48s-28.48-63.48-63.48-63.48c-12.92,0-24.95,3.89-34.99,10.55l-35.94-35.94h-120.7l-24.22-41.52v-9.27h154.55c5.24,14.78,19.35,25.39,35.91,25.39,21,0,38.09-17.09,38.09-38.09s-17.09-38.09-38.09-38.09c-16.55,0-30.66,10.61-35.91,25.39h-154.55s0-50.78,0-50.78h144.92l35.94-35.94c10.04,6.65,22.06,10.54,34.99,10.54,35,0,63.48-28.48,63.48-63.48s-28.48-63.48-63.48-63.48-63.48,28.48-63.48,63.48c0,12.92,3.89,24.95,10.55,34.99l-28.5,28.5h-134.41v-50.79c14,0,25.39-11.4,25.39-25.39v-25.4c0-14-11.4-25.39-25.39-25.39h-228.55c-14,0-25.39,11.4-25.39,25.39v25.39c0,14,11.4,25.39,25.39,25.39v50.79h-134.41s-28.5-28.49-28.5-28.49c6.65-10.04,10.54-22.06,10.54-34.99,0-35-28.48-63.48-63.48-63.48S6.39,34.88,6.39,69.89s28.48,63.48,63.48,63.48c12.92,0,24.95-3.89,34.99-10.55l35.94,35.94h144.92v50.79h-154.54c-5.24-14.78-19.35-25.39-35.91-25.39-21,0-38.09,17.09-38.09,38.09s17.09,38.09,38.09,38.09c16.55,0,30.66-10.61,35.91-25.39h154.54s0,9.25,0,9.25l-24.22,41.52h-120.7l-35.94,35.94c-10.04-6.65-22.06-10.54-34.99-10.54-35,0-63.48,28.48-63.48,63.48s28.48,63.48,63.48,63.48,63.48-28.48,63.48-63.48c0-12.92-3.89-24.95-10.55-34.99l28.5-28.5h95.37l-110.44,189.33c-39.36,29.52-74,65.86-102.13,108.06l-25.59,38.39,21.13,14.09,24.07-36.1c82.97,105.96,211.08,168.72,346.28,168.72s263.31-62.76,346.28-168.72l24.07,36.1,21.13-14.09-25.59-38.38c-28.13-42.19-62.78-78.53-102.13-108.06l-110.45-189.33h95.37l28.5,28.5c-6.65,10.03-10.54,22.06-10.54,34.98,0,35,28.48,63.48,63.48,63.48h0ZM704.72,209.55c7,0,12.7,5.69,12.7,12.7s-5.69,12.7-12.7,12.7-12.7-5.69-12.7-12.7c0-7,5.69-12.7,12.7-12.7ZM730.11,31.78c21,0,38.09,17.09,38.09,38.09s-17.09,38.09-38.09,38.09-38.09-17.09-38.09-38.09,17.09-38.09,38.09-38.09ZM69.88,107.97c-21,0-38.09-17.09-38.09-38.09s17.09-38.09,38.09-38.09,38.09,17.09,38.09,38.09-17.09,38.09-38.09,38.09ZM95.27,234.93c-7,0-12.7-5.69-12.7-12.7s5.69-12.7,12.7-12.7,12.7,5.69,12.7,12.7-5.69,12.7-12.7,12.7ZM69.88,412.7c-21,0-38.09-17.09-38.09-38.09s17.09-38.09,38.09-38.09,38.09,17.09,38.09,38.09-17.09,38.09-38.09,38.09ZM285.72,31.79h228.55l.02,25.39h-228.57s0-25.39,0-25.39ZM311.12,251.07V82.57h177.75v25.39h-50.79v25.39h50.79v25.39h-101.57v25.39h101.57v25.39h-50.79v25.39h50.79v16.13l35.03,60.07h-60.42v106.16c-8.41-1.22-16.88-2.2-25.39-2.93v-128.63h-76.18v128.62c-8.52.73-16.99,1.72-25.39,2.93v-80.76h-75.24l49.85-85.43ZM565.05,603.15c0,91.02-74.04,165.06-165.06,165.06s-165.06-74.04-165.06-165.06,74.04-165.06,165.06-165.06c91.01,0,165.06,74.04,165.06,165.06ZM311.12,421.71c-8.54,1.75-17.01,3.75-25.39,6.01v-65.81s25.38,0,25.38,0v59.81ZM412.69,412.88c-4.22-.12-8.45-.19-12.7-.19s-8.47.07-12.7.19v-101.76s25.38,0,25.38,0v101.76ZM514.27,427.72c-8.39-2.25-16.86-4.25-25.39-6.01v-85.2s25.38,0,25.38,0v91.21ZM260.33,338.13v97.23c-26.6,8.89-52.25,20.31-76.59,34.06l76.59-131.29ZM69.03,603.15c53.31-70.84,127.08-121.88,210.17-147.14-42.51,34.95-69.67,87.93-69.67,147.14s27.02,111.91,69.34,146.88c-82.8-25.39-156.75-76.41-209.84-146.88h0ZM730.94,603.15c-53.09,70.47-127.03,121.49-209.84,146.88,42.32-34.96,69.34-87.82,69.34-146.88s-27.16-112.19-69.67-147.14c83.09,25.25,156.86,76.29,210.17,147.14h0ZM539.64,435.37v-97.23l76.59,131.29c-24.34-13.75-49.98-25.16-76.59-34.06h0ZM730.09,336.51c21,0,38.09,17.09,38.09,38.09s-17.09,38.09-38.09,38.09-38.09-17.09-38.09-38.09,17.09-38.09,38.09-38.09Z"/>
  </g>
</svg>