<?xml version="1.0" encoding="UTF-8"?>
<svg id="Layer_1" xmlns="http://www.w3.org/2000/svg" version="1.1" xmlns:xlink="http://www.w3.org/1999/xlink" viewBox="0 0 800 800">
  <!-- Generator: Adobe Illustrator 30.0.0, SVG Export Plug-In . SVG Version: 2.1.1 Build 123)  -->
  <defs>
    <style>
      .st0 {
        fill: url(#linear-gradient2);
      }

      .st1 {
        fill: url(#linear-gradient1);
      }

      .st2 {
        fill: url(#linear-gradient4);
      }

      .st3 {
        fill: #646668;
      }

      .st4 {
        fill: url(#linear-gradient5);
      }

      .st5 {
        fill: url(#linear-gradient3);
      }

      .st6 {
        fill: url(#linear-gradient);
      }
    </style>
    <linearGradient id="linear-gradient" x1="400.39" y1="134.41" x2="400.39" y2="65.52" gradientUnits="userSpaceOnUse">
      <stop offset="0" stop-color="#fee613"/>
      <stop offset="1" stop-color="#fdb93f"/>
    </linearGradient>
    <linearGradient id="linear-gradient1" x1="465" y1="153.34" x2="465" y2="91.36" xlink:href="#linear-gradient"/>
    <linearGradient id="linear-gradient2" x1="335.83" y1="153.33" x2="335.83" y2="91.35" xlink:href="#linear-gradient"/>
    <linearGradient id="linear-gradient3" x1="377.16" y1="624.2" x2="377.16" y2="198.94" xlink:href="#linear-gradient"/>
    <linearGradient id="linear-gradient4" x1="400.14" y1="249.92" x2="400.14" y2="164.7" xlink:href="#linear-gradient"/>
    <linearGradient id="linear-gradient5" x1="400.13" y1="734.47" x2="400.13" y2="649.03" xlink:href="#linear-gradient"/>
  </defs>
  <path class="st3" d="M739.83,401.47c0-14.04-11.36-24.22-25.42-24.22h-64.08c2.75,6.46,4.49,13.48,4.87,20.92l14.09,95.69.4,2.7v2.73c0,25.37-14.89,47.3-36.32,57.35l-.84,8.45,15.56,154.97c0,8.53,6.95,14.42,15.5,14.42h22.25c8.54,0,15.48-5.89,15.48-14.42l19.56-194.81h7.96c14.04,0,25.4-11.94,25.4-25.97l-14.42-97.82Z"/>
  <path class="st3" d="M674.72,360.22c23.53,0,42.63-19.07,42.63-42.62s-19.1-42.61-42.63-42.61-42.6,19.09-42.6,42.61,19.09,42.62,42.6,42.62Z"/>
  <path class="st3" d="M592.63,377.23h-77.06l.93,6.35.4,2.69v2.73c0,25.08-14.59,46.75-35.63,56.95l-2.04,13.97-4.67,46.47c3.08,10.69,12.73,18.85,24.28,18.85h7.92l19.56,194.81c0,8.53,6.95,14.42,15.5,14.42h22.25c8.54,0,15.48-5.89,15.48-14.42l19.56-194.81h7.96c14.04,0,25.4-11.94,25.4-25.97l-14.4-97.82c-.02-14.03-11.39-24.22-25.44-24.22h0Z"/>
  <path class="st3" d="M552.94,360.22c15.32,0,28.7-8.1,36.23-20.22,4.04-6.51,6.41-14.16,6.41-22.39,0-23.52-19.1-42.61-42.63-42.61s-42.6,19.09-42.6,42.61c0,8.23,2.38,15.89,6.4,22.39,7.51,12.12,20.89,20.22,36.2,20.22h0Z"/>
  <path class="st3" d="M130.28,499.28v-2.73l.4-2.7,14.09-95.69c.38-7.44,2.12-14.46,4.87-20.92h-64.09c-14.04,0-25.41,10.19-25.41,24.22l-14.4,97.82c0,14.03,11.38,25.97,25.4,25.97h7.92l19.56,194.81c0,8.53,6.95,14.42,15.5,14.42h22.25c8.54,0,15.49-5.89,15.49-14.42l15.56-154.94-.86-8.5c-21.41-10.06-36.29-31.98-36.29-57.34h0Z"/>
  <path class="st3" d="M167.89,317.61c0,23.53-19.08,42.61-42.61,42.61s-42.61-19.07-42.61-42.61,19.08-42.61,42.61-42.61,42.61,19.08,42.61,42.61"/>
  <path class="st3" d="M325.64,505.78l-4.03-40.18-9.45-64.14c0-14.04-11.36-24.22-25.42-24.22h-79.39c-14.04,0-25.41,10.19-25.41,24.23l-14.4,97.82c0,14.03,11.39,25.97,25.41,25.97h7.92l19.56,194.81c0,8.53,6.95,14.42,15.5,14.42h22.25c8.54,0,15.49-5.89,15.49-14.42l19.56-194.81h7.94c11.8,0,21.61-8.47,24.48-19.48h0Z"/>
  <path class="st3" d="M247.05,360.22c15.31,0,28.7-8.1,36.22-20.22,1.38-2.23,2.56-4.59,3.51-7.06l-28.48-56.39c-3.59-.98-7.35-1.55-11.25-1.55-23.53,0-42.62,19.09-42.62,42.61,0,8.23,2.37,15.89,6.41,22.39,7.52,12.12,20.91,20.22,36.21,20.22h0Z"/>
  <path class="st6" d="M400.39,134.41c4.75,0,8.61-3.86,8.61-8.61v-51.67c0-4.75-3.86-8.61-8.61-8.61s-8.61,3.86-8.61,8.61v51.67c.01,4.75,3.87,8.61,8.61,8.61Z"/>
  <path class="st1" d="M447.77,152.17c1.37.79,2.83,1.17,4.29,1.17,3,0,5.88-1.54,7.47-4.3l25.85-44.75c2.37-4.13.95-9.38-3.16-11.77-4.12-2.38-9.39-.96-11.76,3.16l-25.84,44.74c-2.39,4.13-.97,9.38,3.14,11.76h0Z"/>
  <path class="st0" d="M315.44,104.28l6.47,11.19,19.37,33.57c.81,1.38,1.92,2.45,3.22,3.18,1.05.59,2.23.9,3.42,1.01.27.03.54.11.82.11h0c1.47,0,2.94-.38,4.29-1.17,4.12-2.38,5.54-7.64,3.14-11.76l-25.83-44.74c-1.48-2.58-4.1-4.1-6.85-4.29-1.65-.13-3.36.24-4.91,1.12-3.48,2.01-4.99,6.06-3.97,9.75.2.7.45,1.37.81,2.03h0Z"/>
  <path class="st5" d="M344.31,364.17c.7,1.37,1.53,2.62,2.45,3.77l7.2,47.02,19.54,194.78c0,8.55,6.95,14.45,15.49,14.45h22.25c8.56,0,15.49-5.9,15.49-14.45l19.57-194.8h7.93c14.05,0,25.43-11.93,25.43-25.95l-14.4-97.83c0-14.03-11.36-24.22-25.42-24.22h-79.39c-4.94,0-9.53,1.29-13.44,3.53l-30.16-59.68c-3.81-7.53-11.41-11.87-19.29-11.87-3.28,0-6.61.76-9.74,2.33l-1.29.65c-10.66,5.38-14.92,18.37-9.53,29.03l67.33,133.22Z"/>
  <path class="st2" d="M400.14,249.92c15.31,0,28.69-8.1,36.21-20.22,4.04-6.51,6.4-14.17,6.4-22.39,0-23.53-19.07-42.6-42.6-42.6s-42.62,19.07-42.62,42.6c0,.51.06,1.03.08,1.54.81,22.82,19.51,41.08,42.54,41.08h0Z"/>
  <path class="st4" d="M452.31,649.03h-104.35c-8.46,0-15.33,6.85-15.33,15.33l-15.33,54.79c0,8.45,6.85,15.32,15.33,15.32h135c8.46,0,15.32-6.85,15.32-15.32l-15.32-54.79c0-8.48-6.87-15.33-15.32-15.33h0Z"/>
</svg>