<svg width="46" height="50" viewBox="0 0 46 50" fill="none" xmlns="http://www.w3.org/2000/svg">
<path d="M42.5402 25.0919C42.5402 24.2144 41.887 23.5781 41.0786 23.5781H37.394C37.5521 23.9819 37.6522 24.4206 37.674 24.8856L38.4842 30.8662L38.5072 31.035V31.2056C38.5072 32.7913 37.651 34.1619 36.4188 34.79L36.3705 35.3181L37.2652 45.0037C37.2652 45.5369 37.6648 45.905 38.1564 45.905H39.4358C39.9269 45.905 40.3259 45.5369 40.3259 45.0037L41.4506 32.8281H41.9083C42.7156 32.8281 43.3688 32.0819 43.3688 31.205L42.5397 25.0912L42.5402 25.0919Z" fill="#646668"/>
<path d="M38.7964 22.5139C40.1494 22.5139 41.2476 21.322 41.2476 19.8501C41.2476 18.3783 40.1494 17.187 38.7964 17.187C37.4434 17.187 36.3469 18.3801 36.3469 19.8501C36.3469 21.3201 37.4446 22.5139 38.7964 22.5139Z" fill="#646668"/>
<path d="M34.0762 23.5767H29.6453L29.6988 23.9735L29.7218 24.1417V24.3123C29.7218 25.8798 28.8828 27.2342 27.673 27.8717L27.5557 28.7448L27.2872 31.6492C27.4643 32.3173 28.0192 32.8273 28.6833 32.8273H29.1387L30.2634 45.0029C30.2634 45.536 30.663 45.9042 31.1547 45.9042H32.434C32.9251 45.9042 33.3241 45.536 33.3241 45.0029L34.4488 32.8273H34.9065C35.7138 32.8273 36.367 32.081 36.367 31.2042L35.539 25.0904C35.5379 24.2135 34.8841 23.5767 34.0762 23.5767Z" fill="#646668"/>
<path d="M31.794 22.5138C32.6749 22.5138 33.4443 22.0075 33.8773 21.25C34.1096 20.8431 34.2458 20.365 34.2458 19.8506C34.2458 18.3806 33.1476 17.1875 31.7946 17.1875C30.4416 17.1875 29.3451 18.3806 29.3451 19.8506C29.3451 20.365 29.482 20.8438 29.7131 21.25C30.1449 22.0075 30.9143 22.5138 31.7946 22.5138H31.794Z" fill="#646668"/>
<path d="M7.4911 31.2051V31.0345L7.5141 30.8658L8.32428 24.8851C8.34613 24.4201 8.44618 23.9814 8.6043 23.5776H4.91913C4.11183 23.5776 3.45805 24.2145 3.45805 25.0914L2.63005 31.2051C2.63005 32.082 3.2844 32.8283 4.09055 32.8283H4.54595L5.67065 45.0039C5.67065 45.537 6.07028 45.9051 6.5619 45.9051H7.84128C8.33232 45.9051 8.73195 45.537 8.73195 45.0039L9.62665 35.3201L9.5772 34.7889C8.34613 34.1601 7.49053 32.7901 7.49053 31.2051H7.4911Z" fill="#646668"/>
<path d="M9.65368 19.8506C9.65368 21.3212 8.55657 22.5138 7.2036 22.5138C5.85062 22.5138 4.75352 21.3219 4.75352 19.8506C4.75352 18.3794 5.85062 17.1875 7.2036 17.1875C8.55657 17.1875 9.65368 18.38 9.65368 19.8506Z" fill="#646668"/>
<path d="M18.7243 31.6114L18.4926 29.1001L17.9492 25.0914C17.9492 24.2139 17.296 23.5776 16.4876 23.5776H11.9226C11.1153 23.5776 10.4616 24.2145 10.4616 25.092L9.63355 31.2058C9.63355 32.0826 10.2885 32.8289 11.0946 32.8289H11.55L12.6747 45.0045C12.6747 45.5376 13.0744 45.9058 13.566 45.9058H14.8454C15.3364 45.9058 15.736 45.5376 15.736 45.0045L16.8607 32.8289H17.3173C17.9958 32.8289 18.5599 32.2995 18.7249 31.6114H18.7243Z" fill="#646668"/>
<path d="M14.2054 22.5138C15.0857 22.5138 15.8556 22.0075 16.288 21.25C16.3674 21.1106 16.4352 20.9631 16.4898 20.8088L14.8522 17.2844C14.6458 17.2231 14.4296 17.1875 14.2054 17.1875C12.8524 17.1875 11.7547 18.3806 11.7547 19.8506C11.7547 20.365 11.891 20.8438 12.1233 21.25C12.5557 22.0075 13.3256 22.5138 14.2054 22.5138Z" fill="#646668"/>
<path d="M23.0224 8.40084C23.2955 8.40084 23.5175 8.15959 23.5175 7.86272V4.63334C23.5175 4.33646 23.2955 4.09521 23.0224 4.09521C22.7493 4.09521 22.5273 4.33646 22.5273 4.63334V7.86272C22.5279 8.15959 22.7499 8.40084 23.0224 8.40084Z" fill="url(#paint0_linear_286_593)"/>
<path d="M25.7468 9.51072C25.8255 9.56009 25.9095 9.58384 25.9934 9.58384C26.1659 9.58384 26.3315 9.48759 26.423 9.31509L27.9093 6.51822C28.0456 6.26009 27.964 5.93197 27.7276 5.78259C27.4907 5.63384 27.1877 5.72259 27.0514 5.98009L25.5656 8.77634C25.4282 9.03447 25.5099 9.36259 25.7462 9.51134L25.7468 9.51072Z" fill="url(#paint1_linear_286_593)"/>
<path d="M18.1378 6.51731L18.5098 7.21668L19.6236 9.31481C19.6702 9.40106 19.734 9.46793 19.8088 9.51356C19.8691 9.55043 19.937 9.56981 20.0054 9.57668C20.0209 9.57856 20.0364 9.58356 20.0525 9.58356C20.1371 9.58356 20.2216 9.55981 20.2992 9.51043C20.5361 9.36168 20.6178 9.03293 20.4798 8.77543L18.9945 5.97918C18.9094 5.81793 18.7588 5.72293 18.6007 5.71106C18.5058 5.70293 18.4075 5.72606 18.3183 5.78106C18.1182 5.90668 18.0314 6.15981 18.0901 6.39043C18.1016 6.43418 18.116 6.47606 18.1367 6.51731H18.1378Z" fill="url(#paint2_linear_286_593)"/>
<path d="M19.7978 22.7607C19.8381 22.8464 19.8858 22.9245 19.9387 22.9964L20.3527 25.9351L21.4763 38.1089C21.4763 38.6432 21.8759 39.012 22.3669 39.012H23.6463C24.1385 39.012 24.537 38.6432 24.537 38.1089L25.6623 25.9339H26.1182C26.9261 25.9339 27.5805 25.1882 27.5805 24.312L26.7525 18.1976C26.7525 17.3207 26.0993 16.6839 25.2908 16.6839H20.7259C20.4418 16.6839 20.1779 16.7645 19.9531 16.9045L18.2189 13.1745C17.9998 12.7039 17.5628 12.4326 17.1097 12.4326C16.9211 12.4326 16.7296 12.4801 16.5497 12.5782L16.4755 12.6189C15.8625 12.9551 15.6176 13.767 15.9275 14.4332L19.799 22.7595L19.7978 22.7607Z" fill="url(#paint3_linear_286_593)"/>
<path d="M23.0081 15.6201C23.8884 15.6201 24.6577 15.1138 25.0901 14.3563C25.3224 13.9494 25.4581 13.4707 25.4581 12.9569C25.4581 11.4863 24.3616 10.2944 23.0086 10.2944C21.6557 10.2944 20.558 11.4863 20.558 12.9569C20.558 12.9888 20.5614 13.0213 20.5626 13.0532C20.6092 14.4794 21.6844 15.6207 23.0086 15.6207L23.0081 15.6201Z" fill="url(#paint4_linear_286_593)"/>
<path d="M26.0078 40.5645H20.0077C19.5213 40.5645 19.1262 40.9926 19.1262 41.5226L18.2448 44.947C18.2448 45.4751 18.6386 45.9044 19.1262 45.9044H26.8887C27.3752 45.9044 27.7696 45.4763 27.7696 44.947L26.8887 41.5226C26.8887 40.9926 26.4937 40.5645 26.0078 40.5645Z" fill="url(#paint5_linear_286_593)"/>
<defs>
<linearGradient id="paint0_linear_286_593" x1="23.0224" y1="8.40084" x2="23.0224" y2="4.09521" gradientUnits="userSpaceOnUse">
<stop stop-color="#FEE613"/>
<stop offset="1" stop-color="#FDB93F"/>
</linearGradient>
<linearGradient id="paint1_linear_286_593" x1="26.7375" y1="9.58384" x2="26.7375" y2="5.71009" gradientUnits="userSpaceOnUse">
<stop stop-color="#FEE613"/>
<stop offset="1" stop-color="#FDB93F"/>
</linearGradient>
<linearGradient id="paint2_linear_286_593" x1="19.3102" y1="9.58293" x2="19.3102" y2="5.70918" gradientUnits="userSpaceOnUse">
<stop stop-color="#FEE613"/>
<stop offset="1" stop-color="#FDB93F"/>
</linearGradient>
<linearGradient id="paint3_linear_286_593" x1="21.6867" y1="39.0126" x2="21.6867" y2="12.4339" gradientUnits="userSpaceOnUse">
<stop stop-color="#FEE613"/>
<stop offset="1" stop-color="#FDB93F"/>
</linearGradient>
<linearGradient id="paint4_linear_286_593" x1="23.0081" y1="15.6201" x2="23.0081" y2="10.2938" gradientUnits="userSpaceOnUse">
<stop stop-color="#FEE613"/>
<stop offset="1" stop-color="#FDB93F"/>
</linearGradient>
<linearGradient id="paint5_linear_286_593" x1="23.0075" y1="45.9044" x2="23.0075" y2="40.5645" gradientUnits="userSpaceOnUse">
<stop stop-color="#FEE613"/>
<stop offset="1" stop-color="#FDB93F"/>
</linearGradient>
</defs>
</svg>
