<svg width="43" height="37" viewBox="0 0 43 37" fill="none" xmlns="http://www.w3.org/2000/svg">
<mask id="mask0_286_620" style="mask-type:luminance" maskUnits="userSpaceOnUse" x="0" y="0" width="43" height="37">
<path d="M42.312 0H0V36.408H42.312V0Z" fill="white"/>
</mask>
<g mask="url(#mask0_286_620)">
<path d="M38.9 19.9657C40.7812 19.9657 42.312 18.6485 42.312 17.0297C42.312 15.411 40.7812 14.0938 38.9 14.0938C38.2055 14.0938 37.5589 14.2737 37.0192 14.5817L35.0875 12.9195H28.5998L27.298 10.9992V10.5705H35.6051C35.8867 11.254 36.6451 11.7448 37.5352 11.7448C38.664 11.7448 39.5826 10.9543 39.5826 9.98309C39.5826 9.01184 38.664 8.22143 37.5352 8.22143C36.6457 8.22143 35.8873 8.71214 35.6051 9.39571H27.298V7.04714H35.0875L37.0192 5.38491C37.5589 5.69248 38.205 5.87239 38.9 5.87239C40.7812 5.87239 42.312 4.55519 42.312 2.93644C42.312 1.31769 40.7812 0.000488281 38.9 0.000488281C37.0187 0.000488281 35.4879 1.31769 35.4879 2.93644C35.4879 3.53399 35.697 4.09038 36.055 4.55473L34.5231 5.87285H27.2986V3.52381C28.0511 3.52381 28.6633 2.99656 28.6633 2.34953V1.17478C28.6633 0.527276 28.0505 0.000488281 27.2986 0.000488281H15.014C14.2615 0.000488281 13.6493 0.527738 13.6493 1.17478V2.34906C13.6493 2.99656 14.262 3.52335 15.014 3.52335V5.87239H7.78945L6.25758 4.55473C6.61501 4.09038 6.8241 3.53445 6.8241 2.93644C6.8241 1.31769 5.2933 0.000488281 3.41205 0.000488281C1.5308 0.000488281 0 1.31723 0 2.93644C0 4.55565 1.5308 5.87239 3.41205 5.87239C4.1065 5.87239 4.75311 5.69248 5.29276 5.38445L7.22454 7.04668H15.014V9.39571H6.70746C6.42581 8.71214 5.6674 8.22143 4.7773 8.22143C3.64855 8.22143 2.72996 9.01184 2.72996 9.98309C2.72996 10.9543 3.64855 11.7448 4.7773 11.7448C5.66686 11.7448 6.42528 11.254 6.70746 10.5705H15.014V10.9983L13.7122 12.9186H7.22454L5.29276 14.5808C4.75311 14.2732 4.10704 14.0933 3.41205 14.0933C1.5308 14.0933 0 15.4105 0 17.0293C0 18.648 1.5308 19.9652 3.41205 19.9652C5.2933 19.9652 6.8241 18.648 6.8241 17.0293C6.8241 16.4317 6.61501 15.8753 6.25704 15.411L7.78891 14.0929H12.9151L6.9789 22.8494C4.8633 24.2147 3.0014 25.8954 1.48941 27.8472L0.11395 29.6227L1.24969 30.2744L2.54345 28.6047C7.00309 33.5054 13.889 36.408 21.156 36.408C28.423 36.408 35.3089 33.5054 39.7686 28.6047L41.0623 30.2744L42.1981 29.6227L40.8226 27.8476C39.3106 25.8963 37.4482 24.2156 35.3331 22.8498L29.3964 14.0933H34.5226L36.0544 15.4115C35.697 15.8753 35.4879 16.4317 35.4879 17.0293C35.4879 18.648 37.0187 19.9652 38.9 19.9652V19.9657ZM37.5352 9.39571C37.9115 9.39571 38.2179 9.65888 38.2179 9.98309C38.2179 10.3073 37.912 10.5705 37.5352 10.5705C37.1585 10.5705 36.8526 10.3073 36.8526 9.98309C36.8526 9.65934 37.1585 9.39571 37.5352 9.39571ZM38.9 1.17385C40.0287 1.17385 40.9473 1.96426 40.9473 2.93551C40.9473 3.90676 40.0287 4.69718 38.9 4.69718C37.7712 4.69718 36.8526 3.90676 36.8526 2.93551C36.8526 1.96426 37.7712 1.17385 38.9 1.17385ZM3.41259 4.69764C2.28384 4.69764 1.36525 3.90723 1.36525 2.93598C1.36525 1.96473 2.28384 1.17431 3.41259 1.17431C4.54134 1.17431 5.45993 1.96473 5.45993 2.93598C5.45993 3.90723 4.54134 4.69764 3.41259 4.69764ZM4.7773 10.5695C4.40105 10.5695 4.09468 10.3064 4.09468 9.98216C4.09468 9.65795 4.40051 9.39479 4.7773 9.39479C5.15409 9.39479 5.45993 9.65795 5.45993 9.98216C5.45993 10.3064 5.15409 10.5695 4.7773 10.5695ZM3.41259 18.7914C2.28384 18.7914 1.36525 18.001 1.36525 17.0297C1.36525 16.0585 2.28384 15.2681 3.41259 15.2681C4.54134 15.2681 5.45993 16.0585 5.45993 17.0297C5.45993 18.001 4.54134 18.7914 3.41259 18.7914ZM15.014 1.17431H27.2986L27.2996 2.3486H15.014V1.17431ZM16.3792 11.316V3.52289H25.9333V4.69718H23.2033V5.87146H25.9333V7.04575H20.4739V8.22004H25.9333V9.39433H23.2033V10.5686H25.9333V11.3146L27.8162 14.0929H24.5686V19.0028C24.1166 18.9463 23.6613 18.901 23.2039 18.8673V12.9181H19.1092V18.8668C18.6513 18.9006 18.196 18.9463 17.7445 19.0023V15.2672H13.7003L16.3798 11.316H16.3792ZM30.028 27.5997C30.028 31.8094 26.0483 35.2337 21.156 35.2337C16.2637 35.2337 12.284 31.8094 12.284 27.5997C12.284 23.39 16.2637 19.9657 21.156 19.9657C26.0478 19.9657 30.028 23.39 30.028 27.5997ZM16.3792 19.2081C15.9202 19.2891 15.465 19.3816 15.0145 19.4861V16.4424H16.3787V19.2086L16.3792 19.2081ZM21.8386 18.7997C21.6118 18.7942 21.3844 18.7909 21.156 18.7909C20.9276 18.7909 20.7007 18.7942 20.4734 18.7997V14.0933H21.8376V18.7997H21.8386ZM27.2986 19.4861C26.8476 19.382 26.3923 19.2895 25.9338 19.2081V15.2676H27.298V19.4861H27.2986ZM13.6493 15.3425V19.8394C12.2195 20.2506 10.8408 20.7788 9.53256 21.4147L13.6493 15.3425ZM3.3669 27.5997C6.23231 24.3234 10.1975 21.9628 14.6635 20.7945C12.3786 22.4109 10.9188 24.8613 10.9188 27.5997C10.9188 30.3382 12.3711 32.7756 14.6458 34.3929C10.1953 33.2186 6.22049 30.859 3.3669 27.5997ZM38.9446 27.5997C36.091 30.859 32.1167 33.2186 27.6657 34.3929C29.9404 32.776 31.3927 30.3312 31.3927 27.5997C31.3927 24.8682 29.9328 22.4109 27.6479 20.7945C32.114 21.9623 36.0792 24.3229 38.9446 27.5997ZM28.6622 19.8399V15.343L32.7789 21.4152C31.4706 20.7792 30.0925 20.2515 28.6622 19.8399ZM38.8989 15.2676C40.0276 15.2676 40.9462 16.058 40.9462 17.0293C40.9462 18.0005 40.0276 18.7909 38.8989 18.7909C37.7701 18.7909 36.8515 18.0005 36.8515 17.0293C36.8515 16.058 37.7701 15.2676 38.8989 15.2676Z" fill="url(#paint0_linear_286_620)"/>
</g>
<defs>
<linearGradient id="paint0_linear_286_620" x1="0" y1="18.2045" x2="42.312" y2="18.2045" gradientUnits="userSpaceOnUse">
<stop stop-color="#461E96"/>
<stop offset="0.5" stop-color="#98D3B8"/>
<stop offset="1" stop-color="#F27FA9"/>
</linearGradient>
</defs>
</svg>
