<?xml version="1.0" encoding="UTF-8"?>
<svg id="Layer_1" xmlns="http://www.w3.org/2000/svg" version="1.1" xmlns:xlink="http://www.w3.org/1999/xlink" viewBox="0 0 800 800">
  <!-- Generator: Adobe Illustrator 30.0.0, SVG Export Plug-In . SVG Version: 2.1.1 Build 123)  -->
  <defs>
    <style>
      .st0 {
        fill: #7dceff;
      }

      .st1 {
        fill: url(#linear-gradient1);
      }

      .st2 {
        fill: #842448;
      }

      .st3 {
        fill: #1472b2;
      }

      .st4 {
        fill: url(#linear-gradient);
      }
    </style>
    <linearGradient id="linear-gradient" x1="196.62" y1="535.31" x2="357.39" y2="535.31" gradientUnits="userSpaceOnUse">
      <stop offset="0" stop-color="#5ccae9"/>
      <stop offset=".5" stop-color="#7e1950"/>
      <stop offset="1" stop-color="#fbae21"/>
    </linearGradient>
    <linearGradient id="linear-gradient1" x1="55.59" y1="437.62" x2="744.38" y2="437.62" xlink:href="#linear-gradient"/>
  </defs>
  <path class="st0" d="M290.32,108.99c-.79-.51-100.71-50.79-100.71-50.79-6.92-3.46-15.09-3.46-22,0,0,0-99.93,50.28-100.71,50.79l111.71,55.86,111.72-55.86Z"/>
  <path class="st3" d="M69.21,274.41l97.1,51.79v-140l-110.7-55.35v121.55c0,9.32,5.26,17.83,13.6,22h0Z"/>
  <path class="st0" d="M733.13,108.99c-.79-.51-100.71-50.79-100.71-50.79-6.92-3.46-15.09-3.46-22,0,0,0-99.93,50.28-100.71,50.79l111.71,55.86,111.72-55.86Z"/>
  <path class="st3" d="M633.71,186.21v140l97.1-51.79c8.34-4.17,13.6-12.68,13.6-22v-121.55l-110.7,55.35Z"/>
  <path class="st4" d="M357.39,498.41h-98.4c-8.23,0-15.91,4.11-20.47,10.96l-41.89,62.84h160.77v-73.8Z"/>
  <path class="st2" d="M621.41,670.6v-172.2c0-13.59-11.01-24.6-24.6-24.6h-196.8c-13.59,0-24.6,11.01-24.6,24.6v147.6h-24.6v-49.2h-172.2s0,73.79,0,73.79c0,13.59,11.01,24.6,24.6,24.6h24.6c0,27.14,22.06,49.2,49.2,49.2s49.2-22.06,49.2-49.2h147.6c0,27.14,22.06,49.2,49.2,49.2s49.2-22.06,49.2-49.2h24.6c13.59,0,24.61-11,24.61-24.59h-.01ZM277,719.8c-13.56,0-24.6-11.04-24.6-24.6s11.04-24.6,24.6-24.6,24.6,11.04,24.6,24.6c0,13.56-11.04,24.6-24.6,24.6ZM523,719.8c-13.56,0-24.6-11.04-24.6-24.6s11.04-24.6,24.6-24.6,24.6,11.04,24.6,24.6-11.04,24.6-24.6,24.6Z"/>
  <path class="st1" d="M730.11,426.85l-186.78-86.2,32.3-32.3,33.47,17.85v-140l-110.7-55.35v47.75h-196.8v-47.74l-110.7,55.35v139.99l33.47-17.85,32.3,32.3-186.78,86.2c-10.5,4.85-16.2,16.33-13.71,27.61,2.47,11.29,12.47,19.33,24.02,19.33h49.2v246c0,13.59,11.02,24.6,24.6,24.6h68.3c-6.42-7.13-11.63-15.37-14.9-24.59h-4.21c-27.12,0-49.2-22.06-49.2-49.2v-88.68l57.46-86.21c9.15-13.72,24.46-21.91,40.94-21.91h105.24c8.54-14.64,24.23-24.6,42.36-24.6h196.8c27.12,0,49.2,22.06,49.2,49.2v172.2c0,27.14-22.08,49.2-49.2,49.2h-4.21c-3.27,9.22-8.48,17.46-14.9,24.59h68.3c13.6,0,24.6-11.02,24.6-24.6v-246h49.2c11.55,0,21.55-8.04,24.02-19.33,2.47-11.27-3.22-22.76-13.71-27.61h.02ZM389.69,279.25l-85.43,39.43-34.53-34.53,18.27-9.75c8.34-4.16,13.6-12.68,13.6-22v-24.6h196.8v24.6c0,9.32,5.26,17.83,13.6,22l18.27,9.75-34.53,34.53-85.42-39.43c-6.54-3-14.09-3-20.62,0h0Z"/>
</svg>