<svg width="55" height="55" viewBox="0 0 55 55" fill="none" xmlns="http://www.w3.org/2000/svg">
<path d="M19.9595 7.49297C19.9052 7.45791 13.0357 4.00116 13.0357 4.00116C12.5599 3.76329 11.9982 3.76329 11.5232 4.00116C11.5232 4.00116 4.65299 7.45791 4.59937 7.49297L12.2794 11.3333L19.9602 7.49297H19.9595Z" fill="#7DCEFF"/>
<path d="M4.75818 18.8658L11.4338 22.4264V12.8014L3.82318 8.99609V17.3527C3.82318 17.9934 4.18481 18.5785 4.75818 18.8652V18.8658Z" fill="#1472B2"/>
<path d="M50.4027 7.49297C50.3484 7.45791 43.4789 4.00116 43.4789 4.00116C43.0031 3.76329 42.4414 3.76329 41.9664 4.00116C41.9664 4.00116 35.0962 7.45791 35.0425 7.49297L42.7226 11.3333L50.4034 7.49297H50.4027Z" fill="#7DCEFF"/>
<path d="M43.5676 12.8017V22.4267L50.2432 18.8661C50.8166 18.5794 51.1782 17.9944 51.1782 17.3536V8.99707L43.5676 12.8024V12.8017Z" fill="#1472B2"/>
<path d="M24.5706 34.2656H17.8056C17.2397 34.2656 16.7117 34.5482 16.3982 35.0191L13.5183 39.3394H24.5712V34.2656H24.5706Z" fill="url(#paint0_linear_286_621)"/>
<path d="M42.7219 46.1037V34.265C42.7219 33.3307 41.965 32.5737 41.0307 32.5737H27.5007C26.5664 32.5737 25.8094 33.3307 25.8094 34.265V44.4125H24.1182V41.03H12.2794V46.103C12.2794 47.0374 13.0364 47.7943 13.9707 47.7943H15.6619C15.6619 49.6602 17.1785 51.1768 19.0444 51.1768C20.9103 51.1768 22.4269 49.6602 22.4269 47.7943H32.5744C32.5744 49.6602 34.091 51.1768 35.9569 51.1768C37.8228 51.1768 39.3394 49.6602 39.3394 47.7943H41.0307C41.965 47.7943 42.7226 47.038 42.7226 46.1037H42.7219ZM19.0437 49.4862C18.1115 49.4862 17.3525 48.7272 17.3525 47.795C17.3525 46.8627 18.1115 46.1037 19.0437 46.1037C19.976 46.1037 20.735 46.8627 20.735 47.795C20.735 48.7272 19.976 49.4862 19.0437 49.4862ZM35.9562 49.4862C35.024 49.4862 34.265 48.7272 34.265 47.795C34.265 46.8627 35.024 46.1037 35.9562 46.1037C36.8885 46.1037 37.6475 46.8627 37.6475 47.795C37.6475 48.7272 36.8885 49.4862 35.9562 49.4862Z" fill="#842448"/>
<path d="M50.1951 29.3461L37.354 23.4198L39.5746 21.1992L41.8757 22.4264V12.8014L34.265 8.99609V12.2789H20.735V8.99678L13.1244 12.8021V22.4264L15.4255 21.1992L17.6461 23.4198L4.80497 29.3461C4.08309 29.6795 3.69122 30.4688 3.8624 31.2443C4.03222 32.0205 4.71972 32.5732 5.51378 32.5732H8.89628V49.4857C8.89628 50.42 9.6539 51.177 10.5875 51.177H15.2832C14.8418 50.6868 14.4836 50.1203 14.2588 49.4864H13.9693C12.1048 49.4864 10.5868 47.9698 10.5868 46.1039V40.0072L14.5372 34.0802C15.1663 33.137 16.2188 32.5739 17.3518 32.5739H24.5871C25.1742 31.5674 26.2529 30.8827 27.4993 30.8827H41.0293C42.8938 30.8827 44.4118 32.3993 44.4118 34.2652V46.1039C44.4118 47.9698 42.8938 49.4864 41.0293 49.4864H40.7399C40.5151 50.1203 40.1569 50.6868 39.7155 51.177H44.4112C45.3462 51.177 46.1024 50.4193 46.1024 49.4857V32.5732H49.4849C50.279 32.5732 50.9665 32.0205 51.1363 31.2443C51.3061 30.4695 50.9149 29.6795 50.1937 29.3461H50.1951ZM26.7912 19.1986L20.9179 21.9094L18.544 19.5355L19.8 18.8652C20.3734 18.5792 20.735 17.9934 20.735 17.3527V15.6614H34.265V17.3527C34.265 17.9934 34.6267 18.5785 35.2 18.8652L36.4561 19.5355L34.0822 21.9094L28.2095 19.1986C27.7599 18.9923 27.2408 18.9923 26.7919 19.1986H26.7912Z" fill="url(#paint1_linear_286_621)"/>
<defs>
<linearGradient id="paint0_linear_286_621" x1="13.5176" y1="36.8025" x2="24.5706" y2="36.8025" gradientUnits="userSpaceOnUse">
<stop stop-color="#5CCAE9"/>
<stop offset="0.5" stop-color="#7E1950"/>
<stop offset="1" stop-color="#FBAE21"/>
</linearGradient>
<linearGradient id="paint1_linear_286_621" x1="3.82184" y1="30.0865" x2="51.1762" y2="30.0865" gradientUnits="userSpaceOnUse">
<stop stop-color="#5CCAE9"/>
<stop offset="0.5" stop-color="#7E1950"/>
<stop offset="1" stop-color="#FBAE21"/>
</linearGradient>
</defs>
</svg>
