<?xml version="1.0" encoding="UTF-8"?>
<svg id="Layer_1" xmlns="http://www.w3.org/2000/svg" version="1.1" xmlns:xlink="http://www.w3.org/1999/xlink" viewBox="0 0 128 128">
  <!-- Generator: Adobe Illustrator 30.0.0, SVG Export Plug-In . SVG Version: 2.1.1 Build 123)  -->
  <defs>
    <style>
      .st0 {
        fill: url(#linear-gradient);
      }
    </style>
    <linearGradient id="linear-gradient" x1="0" y1="63.94" x2="128.01" y2="63.94" gradientUnits="userSpaceOnUse">
      <stop offset=".16" stop-color="#049688"/>
      <stop offset="1" stop-color="#000706"/>
      <stop offset="1" stop-color="#000"/>
    </linearGradient>
  </defs>
  <path class="st0" d="M56.81,127.59c-1.9-.23-3.9-.52-4.43-.65-.79-.19-1.58-.35-2.38-.5-.91-.18-1.81-.39-2.7-.63-4.15-1.19-4.44-1.29-7.57-2.56-2.88-1.17-8.17-3.91-9.98-5.16-.5-.34-.96-.62-1.03-.62s-1.23-.82-2.58-1.81c-8.57-6.34-15-14.04-19.65-23.53-.8-1.63-1.45-3.07-1.45-3.21s-.14-.5-.32-.82c-.36-.65-.88-2.05-1.3-3.49-.18-.61-.39-1.22-.62-1.81-.19-.46-.35-1.02-.35-1.25s-.19-.96-.43-1.64c-.24-.68-.43-1.47-.43-1.77s-.19-1.32-.42-2.28c-.56-2.36-1.16-8.47-1.16-11.9s.6-9.53,1.16-11.89c.23-.96.42-2,.42-2.32s.14-.95.32-1.4c.18-.45.41-1.25.52-1.79.11-.53.36-1.46.56-2.06l.59-1.73c.43-1.29.84-2.39,1.03-2.81.11-.24.54-1.21.96-2.16.68-1.53,2.12-4.43,2.97-5.94.31-.56.43-.74,2.1-3.35,2.65-4.15,7.18-9.31,11.39-12.99,1.49-1.3,6.45-5.06,6.67-5.06.06,0,.53-.28,1.04-.62,1.35-.9,2.67-1.67,4.39-2.53.62-.31,1.23-.62,1.84-.95.28-.16.82-.41,3.57-1.64.6-.27,1.26-.52,3.14-1.17.41-.14,1.25-.45,1.84-.67.6-.22,1.3-.41,1.56-.41s.94-.18,1.51-.4c.57-.22,1.6-.48,2.3-.56.7-.08,1.62-.28,2.06-.43.43-.15,1.61-.34,2.62-.43,1.32-.12,2.63-.27,3.94-.47,2.69-.39,8.53-.39,11.19,0,1.26.18,2.52.33,3.78.44.95.08,2.17.28,2.7.44.54.16,1.46.36,2.06.43.59.08,1.59.32,2.22.55.63.23,1.34.41,1.59.41s.75.14,1.12.31c.38.17,1.17.45,1.77.62.59.18,1.61.54,2.27.8.65.26,1.53.61,1.94.76.77.29,6.46,3.14,7.23,3.62,6.28,3.92,9.51,6.48,13.86,10.96,5.24,5.41,8.72,10.57,12.25,18.16.25.54.63,1.33.85,1.76.21.43.39.94.39,1.13s.18.76.4,1.27c.6,1.38,1.12,2.96,1.36,4.16.12.59.34,1.32.5,1.62.15.3.33,1.06.4,1.69.07.62.28,1.65.45,2.27,1.02,3.53,1.53,13.93.91,18.53-.18,1.37-.39,3.02-.46,3.67-.12,1.12-.71,4-1.21,5.94l-.52,2.06c-.98,3.96-3.4,9.59-6.36,14.81-1.17,2.07-5.1,7.67-5.84,8.32-.07.06-.4.45-.74.86-.34.42-1.41,1.59-2.39,2.59-4.3,4.44-7.77,7.19-13.86,10.97-.72.45-6.85,3.44-7.99,3.91-.59.24-1.59.64-2.2.89-.61.25-1.3.45-1.51.46-.21,0-.78.19-1.26.43-.48.23-1.08.42-1.35.43-.27,0-1.04.19-1.73.42-.68.23-1.63.48-2.11.55-.48.07-1.5.28-2.27.45-.77.17-3.11.51-5.19.75-4.63.54-9.31.53-13.94-.03h0ZM61.52,115.09c.3-.23.61-.7.69-1.03.18-.72,29.23-58.97,29.78-59.7.46-.62.5-1.6.08-1.95-.22-.19-3-.25-10.43-.23-5.57.01-10.25.02-10.41.01-.23,0-.27-3.73-.25-19.67.02-10.82-.04-19.77-.11-19.89-.08-.13-.38-.23-.68-.23-.42,0-.61.18-.87.81-.49,1.17-1.82,3.82-8.35,16.49-1.35,2.63-2.71,5.26-4.06,7.89-1.16,2.26-2.98,5.81-4.05,7.89-2.87,5.58-5.74,11.17-8.6,16.76-4.93,9.64-5.53,10.78-5.74,11.04-.41.5-.63,1.64-.4,2.07.21.39.63.41,11.04.39,5.95,0,10.86.02,10.91.07.14.14.09,37.31-.06,38.2-.09.58-.03.89.24,1.16.46.46.59.46,1.25-.07Z"/>
</svg>