<svg width="44" height="44" viewBox="0 0 44 44" fill="none" xmlns="http://www.w3.org/2000/svg">
<g clip-path="url(#clip0_293_562)">
<path d="M33.55 17.6002H23.1V21.4502C23.1 24.1799 20.8797 26.4002 18.15 26.4002C15.4204 26.4002 13.2 24.1799 13.2 21.4502V13.0902L8.73787 15.7715C7.41127 16.5624 6.60002 17.999 6.60002 19.539V22.7911L1.10002 25.9674C0.0478694 26.5724 -0.316231 27.9199 0.295919 28.9715L5.79592 38.5002C6.40092 39.5518 7.74842 39.9093 8.80002 39.3049L15.9088 35.2002H25.3C27.7266 35.2002 29.7 33.2268 29.7 30.8002H30.8C32.0172 30.8002 33 29.8174 33 28.6002V24.2002H33.55C34.4641 24.2002 35.2 23.4643 35.2 22.5502V19.2502C35.2 18.3356 34.4641 17.6002 33.55 17.6002ZM43.7047 15.029L38.2047 5.50022C37.5997 4.44807 36.2522 4.09112 35.2 4.69612L28.0913 8.80022H21.065C20.24 8.80022 19.4354 9.03397 18.7347 9.46682L16.4313 10.904C15.785 11.3027 15.4 12.0106 15.4 12.7668V21.4502C15.4 22.9699 16.6304 24.2002 18.15 24.2002C19.6697 24.2002 20.9 22.9699 20.9 21.4502V15.4002H33.55C35.6747 15.4002 37.4 17.1261 37.4 19.2502V21.2093L42.9 18.0331C43.9516 17.4215 44.3091 16.0806 43.7047 15.029Z" fill="url(#paint0_radial_293_562)"/>
</g>
<defs>
<radialGradient id="paint0_radial_293_562" cx="0" cy="0" r="1" gradientUnits="userSpaceOnUse" gradientTransform="translate(21.9984 22.0002) scale(19.921)">
<stop offset="0.4" stop-color="#69CDF5"/>
<stop offset="0.54" stop-color="#6FA5DA"/>
<stop offset="0.79" stop-color="#7B63AE"/>
<stop offset="0.91" stop-color="#804A9D"/>
</radialGradient>
<clipPath id="clip0_293_562">
<rect width="44" height="44" fill="white"/>
</clipPath>
</defs>
</svg>
