<?xml version="1.0" encoding="UTF-8"?>
<svg id="Layer_1" xmlns="http://www.w3.org/2000/svg" version="1.1" xmlns:xlink="http://www.w3.org/1999/xlink" viewBox="0 0 128 128">
  <!-- Generator: Adobe Illustrator 30.0.0, SVG Export Plug-In . SVG Version: 2.1.1 Build 123)  -->
  <defs>
    <style>
      .st0 {
        fill: #154463;
      }

      .st1 {
        fill: #fff;
      }

      .st2 {
        fill: url(#linear-gradient);
      }
    </style>
    <linearGradient id="linear-gradient" x1="9.65" y1="64.01" x2="118.86" y2="64.01" gradientUnits="userSpaceOnUse">
      <stop offset="0" stop-color="#1f225a"/>
      <stop offset="1" stop-color="#5d94ce"/>
    </linearGradient>
  </defs>
  <path d="M93.81,92.11c.79-6.53.55-7.49,5.42-6.43l1.24.11c3.74.17,8.64-.6,11.51-1.94,6.19-2.87,9.86-7.67,3.76-6.41-13.92,2.87-14.88-1.84-14.88-1.84,14.7-21.82,20.85-49.51,15.54-56.29-14.47-18.49-39.52-9.75-39.94-9.52l-.13.02c-2.75-.57-5.83-.91-9.29-.97-6.3-.1-11.08,1.65-14.71,4.4,0,0-44.68-18.41-42.6,23.15.44,8.84,12.67,66.9,27.26,49.36,5.33-6.41,10.48-11.83,10.48-11.83,2.56,1.7,5.62,2.57,8.83,2.25l.25-.21c-.08.8-.04,1.57.1,2.5-3.76,4.2-2.65,4.94-10.17,6.48-7.6,1.57-3.14,4.36-.22,5.08,3.53.88,11.71,2.14,17.24-5.6l-.22.88c1.47,1.18,1.38,8.48,1.58,13.69.21,5.21.56,10.08,1.62,12.95,1.06,2.87,2.32,10.26,12.19,8.14,8.25-1.76,14.56-4.31,15.14-27.99"/>
  <path class="st0" d="M75.46,125.26c-4.37,0-7.21-1.69-8.94-3.32-2.61-2.46-3.64-5.63-4.26-7.52l-.27-.79c-1.24-3.36-1.67-8.19-1.92-14.42-.04-.93-.06-1.9-.09-2.92-.02-.75-.05-1.68-.08-2.66-1.57.75-3.24,1.28-4.96,1.57-3.08.53-6.39.36-9.84-.51-2.44-.61-4.97-1.87-6.41-3.82-4.2,3.68-8.21,3.18-10.4,2.45-3.85-1.29-7.3-4.9-10.54-11.04-2.31-4.38-4.54-10.07-6.64-16.94-3.65-11.96-5.97-24.56-6.18-28.69-.65-12.94,2.84-22.2,10.36-27.51,11.86-8.38,29.83-3.45,36.38-1.21,4.4-2.65,9.58-3.94,15.43-3.85,3.14.05,6.14.33,8.92.82,2.9-.91,8.63-2.22,15.18-2.14,12.08.14,22.09,4.85,28.95,13.61,4.89,6.25,2.47,19.38.6,26.65-2.64,10.23-7.27,21.1-12.96,30.57,1.54.01,3.78-.17,6.96-.83,6.27-1.29,8.11,2.07,8.61,3.57,2,6.04-6.68,10.61-9.38,11.86-3.47,1.61-9.12,2.59-13.75,2.38h-.2s-1.22-.12-1.22-.12l-.12,1.01-.12.99c-.31,12-2.03,19.6-5.55,24.62-3.7,5.26-8.83,6.74-13.36,7.71-1.54.33-2.95.47-4.22.47h0ZM66.27,81.58c2.82,2.26,3.07,6.5,3.29,14.43.03.99.05,1.93.09,2.8.11,2.65.36,8.86,1.33,11.48.14.37.26.75.39,1.15,1.08,3.32,1.63,4.98,6.31,3.98,3.93-.84,5.95-1.6,7.53-3.85,2.3-3.27,3.58-9.86,3.82-19.58l4.78.12-4.75-.57.14-1.19c.46-3.91.78-6.73,3.4-8.6,2.1-1.5,4.49-1.35,6.39-1.01-2.09-1.58-2.67-3.43-2.82-4.19l-.4-1.96,1.12-1.66c6.46-9.58,11.78-21.35,14.61-32.3,2.91-11.25,2.02-17.23,1.13-18.36-11.73-14.99-32.07-8.8-34.19-8.1l-.36.19-1.8.34-.92-.19c-2.54-.53-5.37-.82-8.39-.87-4.76-.08-8.59,1.04-11.74,3.43l-2.18,1.66-2.53-1.04c-5.41-2.21-21.31-6.66-29.7-.72-4.66,3.3-6.78,9.76-6.31,19.21.16,3.12,2.27,14.93,5.77,26.38,4.83,15.82,9.22,21.08,11.05,21.69.32.11,1.15-.54,1.98-1.53,3.44-4.13,7.01-8.15,10.69-12.07l2.77-2.92,3.35,2.22c1.35.9,2.84,1.41,4.37,1.5l7.99-6.81-1.16,11.81c-.03.26-.04.63.06,1.3l.35,2.24-1.51,1.69-.17.2,4.39,2.03s1.84-2.3,1.84-2.3Z"/>
  <path class="st2" d="M115.73,77.44c-13.93,2.87-14.88-1.84-14.88-1.84,14.7-21.82,20.85-49.51,15.54-56.29-14.47-18.49-39.52-9.75-39.94-9.52l-.14.02c-2.75-.57-5.83-.91-9.29-.97-6.3-.1-11.08,1.65-14.71,4.4,0,0-44.68-18.41-42.61,23.15.44,8.84,12.67,66.9,27.26,49.36,5.33-6.41,10.48-11.83,10.48-11.83,2.56,1.7,5.62,2.57,8.83,2.25l.25-.21c-.08.8-.04,1.57.1,2.5-3.76,4.2-2.65,4.94-10.17,6.48-7.6,1.57-3.14,4.36-.22,5.08,3.53.88,11.71,2.14,17.24-5.6l-.22.88c1.47,1.18,2.51,7.67,2.33,13.56-.17,5.89-.29,9.93.87,13.08,1.16,3.16,2.32,10.26,12.19,8.14,8.25-1.77,12.53-6.35,13.12-14,.42-5.43,1.38-4.63,1.44-9.49l.77-2.3c.88-7.37.14-9.74,5.22-8.64l1.24.11c3.74.17,8.64-.6,11.51-1.94,6.19-2.87,9.86-7.67,3.76-6.41Z"/>
  <path class="st1" d="M75.96,122.31c-8.23,0-10.84-6.52-11.91-9.18-1.56-3.91-1.9-19.07-1.55-31.5.02-.88.75-1.57,1.63-1.55,0,0,0,0,.01,0,.88.02,1.57.76,1.55,1.64,0,0,0,0,0,0-.4,14.34.17,27.34,1.32,30.23,1.8,4.51,4.54,8.45,12.28,6.8,7.34-1.57,10.09-4.36,11.32-11.46.94-5.45,2.8-20.95,3.03-24.01.06-.88.83-1.54,1.71-1.47h0c.88.07,1.54.83,1.47,1.71-.24,3.18-2.09,18.66-3.07,24.32-1.45,8.39-5.18,12.19-13.79,14.04-1.46.31-2.79.45-4,.45ZM31.32,90.47c-.72,0-1.43-.12-2.12-.35-5.35-1.78-10.44-10.49-15.14-25.89-3.58-11.72-5.84-23.95-6.04-27.92-.59-11.78,2.44-20.12,9.02-24.78,13.01-9.22,34.89-.44,35.81-.06.82.33,1.21,1.26.87,2.08-.33.82-1.26,1.21-2.08.87-.21-.09-21.19-8.49-32.77-.28-5.62,3.99-8.2,11.39-7.67,22.01.17,3.35,2.28,15.28,5.91,27.15,4.19,13.74,8.97,22.41,13.1,23.79.65.22,2.62.87,5.44-2.52,3.29-3.95,6.7-7.79,10.23-11.53.62-.62,1.63-.62,2.26,0,.6.6.62,1.58.05,2.21-.05.05-4.85,5.07-10.08,11.36-2.48,2.98-4.85,3.85-6.79,3.85ZM100.75,77.02c-.88,0-1.6-.72-1.59-1.6,0-.32.1-.63.27-.89,14.86-22.06,20.08-48.7,15.61-54.41-5.62-7.19-13.57-10.94-23.6-11.16-7.43-.16-13.34,1.74-14.31,2.07l-.24.1c-.97.31-1.72-.23-2-.85-.33-.74-.06-1.61.63-2.02.05-.03.19-.09.43-.18h-.02s.02,0,.02,0c1.64-.6,7.64-2.4,15.07-2.32,11.11.12,20.28,4.4,26.53,12.39,2.96,3.78,2.96,12.49.02,23.89-3,11.62-8.65,24.12-15.5,34.28-.31.46-.81.7-1.32.7ZM101.51,87.23c-2.54,0-4.81-.36-6.18-1.17-1.4-.84-1.67-1.98-1.7-2.58-.38-6.71,3.32-7.88,5.21-8.41-.26-.4-.64-.87-1.02-1.35-1.1-1.38-2.61-3.26-3.77-6.08-.18-.44-.75-1.46-1.41-2.65-3.58-6.42-11.03-19.77-6.24-26.61,2.21-3.17,6.62-4.41,13.12-3.72-1.91-5.82-11.01-24.03-32.6-24.39-6.49-.11-11.82,1.89-15.82,5.93-8.96,9.05-8.64,25.42-8.63,25.59.02.88-.67,1.61-1.55,1.64-.88.02-1.61-.67-1.64-1.55h0c-.02-.73-.35-17.91,9.55-27.92,4.64-4.68,10.74-7,18.14-6.87,13.81.23,22.71,7.25,27.73,13.1,5.48,6.38,8.17,13.41,8.39,15.76.17,1.75-1.09,2.1-1.34,2.15h-.58c-6.38-1.01-10.47-.3-12.16,2.12-3.64,5.2,3.41,17.83,6.41,23.23.77,1.38,1.32,2.37,1.58,2.99.99,2.4,2.28,4.01,3.31,5.3.91,1.14,1.7,2.12,1.98,3.28.13.23,1.99,2.98,13.02.7,2.76-.57,4.42-.08,4.93,1.45,1,3.01-4.6,6.53-7.69,7.97-2.78,1.29-7.2,2.11-11.04,2.11ZM96.81,83.21c.35.35,2.1.96,5.73.81,3.22-.14,6.62-.84,8.66-1.79,2.61-1.21,4.35-2.57,5.25-3.49l-.5.09c-7.05,1.46-12.04,1.26-14.83-.58-.19-.12-.37-.26-.54-.4-.3.12-.58.2-.78.25-1.58.44-3.21.9-3,5.11ZM51.25,92.12c-1.75,0-3.6-.24-5.48-.71-1.95-.49-5.24-1.96-5.19-4.37.06-2.71,3.99-3.52,5.48-3.82,5.35-1.1,5.7-1.54,7.38-3.67.49-.62,1.1-1.39,1.92-2.31,1.23-1.38,2.57-2.07,3.99-2.07.99,0,1.8.33,2.34.56,1.71.71,3.13,2.42,3.72,4.47.53,1.85.28,3.62-.71,5.01-3.24,4.53-7.89,6.93-13.44,6.93ZM44.03,87.18c.48.37,1.44.87,2.52,1.14,1.63.41,3.21.61,4.71.61,4.55,0,8.2-1.88,10.85-5.59.55-.77.39-1.76.24-2.27-.31-1.08-1.08-2.07-1.87-2.4-.43-.18-.79-.31-1.12-.31-.18,0-.71,0-1.61,1.01-.62.7-1.22,1.42-1.79,2.16-2.08,2.65-3.04,3.54-9.24,4.82-1.51.31-2.29.63-2.67.84ZM56.3,79.82c-.79,0-1.46-.58-1.58-1.35-.04-.26-.07-.53-.08-.8-4.06-.08-7.99-1.82-10.96-4.93-3.76-3.93-5.48-9.37-4.7-14.93.85-6.04.53-11.37.36-14.23-.05-.8-.08-1.37-.08-1.77,0-.51.01-1.84,4.49-4.11,1.59-.81,4.78-2.22,8.27-2.58,5.78-.6,9.58,1.98,10.73,7.25,3.08,14.23.24,20.52-1.83,25.12-.38.86-.75,1.66-1.04,2.45l-.26.69c-1.09,2.93-2.04,5.46-1.75,7.35.13.87-.46,1.68-1.33,1.82,0,0,0,0,0,0,0,0-.24.02-.24.02ZM42.46,42.26l.06,1.14c.18,2.97.5,8.51-.38,14.86-.64,4.58.76,9.06,3.84,12.28,2.44,2.54,5.64,3.94,8.94,3.94h.07c.37-1.56.98-3.2,1.64-4.97l.26-.69c.33-.88.71-1.74,1.12-2.65,1.99-4.42,4.47-9.93,1.62-23.13-.56-2.62-1.94-4.13-4.19-4.63-4.63-1.02-11.53,2.46-12.97,3.84ZM52.09,41.58c-.08.56,1.03,2.07,2.49,2.27,1.45.2,2.69-.97,2.77-1.54.08-.56-1.03-1.19-2.49-1.39-1.45-.2-2.69.09-2.77.66ZM54.91,44.41l-.41-.03c-.9-.12-1.81-.69-2.43-1.52-.22-.29-.58-.85-.51-1.35.1-.74,1-1.18,2.4-1.18.31,0,.64.02.97.07.77.11,1.48.33,2,.62.91.51.98,1.08.94,1.37-.11.81-1.4,2.02-2.96,2.02ZM52.62,41.68c.04.35.91,1.5,2.03,1.65l.26.02c1.04,0,1.81-.81,1.9-1.08-.1-.18-.76-.63-2.03-.81-.27-.04-.55-.06-.82-.06-.81,0-1.24.18-1.35.28ZM96.23,40.43c.08.56-1.03,2.07-2.48,2.27-1.45.2-2.69-.97-2.77-1.54-.08-.56,1.04-1.19,2.49-1.39,1.45-.2,2.69.09,2.77.66ZM93.41,42.99c-1.4,0-2.6-1.09-2.7-1.79-.11-.85,1.28-1.49,2.71-1.69.32-.04.63-.07.93-.07,1.24,0,2.06.36,2.14.95.05.38-.24.96-.74,1.49-.33.35-1.03.95-1.97,1.08l-.37.03ZM94.35,39.98c-.28,0-.56.02-.86.06-1.44.2-2.3.78-2.26,1.09.05.34.97,1.33,2.17,1.33l.3-.02c.79-.11,1.38-.62,1.66-.92.44-.47.62-.9.6-1.05-.03-.2-.56-.49-1.61-.49ZM98.32,72.82c-.88,0-1.59-.71-1.59-1.59,0-.32.09-.63.27-.89,3.4-5.07,2.78-10.25,2.18-15.26-.26-2.13-.52-4.34-.45-6.45.07-2.18.35-3.97.61-5.71.32-2.06.62-4,.49-6.31-.05-.88.63-1.63,1.51-1.68.88-.05,1.63.63,1.68,1.51h0c.14,2.64-.2,4.84-.53,6.97-.25,1.64-.51,3.34-.58,5.33-.06,1.87.18,3.86.43,5.97.64,5.32,1.36,11.35-2.69,17.41-.3.44-.79.71-1.33.71h0Z"/>
</svg>